<?xml version="1.0" encoding="UTF-8" standalone="no"?>
<svg width="200px" height="200px" viewBox="0 0 200 200" version="1.1" xmlns="http://www.w3.org/2000/svg" xmlns:xlink="http://www.w3.org/1999/xlink" xmlns:sketch="http://www.bohemiancoding.com/sketch/ns">
    <!-- Generator: Sketch 3.4.2 (15857) - http://www.bohemiancoding.com/sketch -->
    <title>trending list</title>
    <desc>Created with Sketch.</desc>
    <defs></defs>
    <g id="Page-2" stroke="none" stroke-width="1" fill="none" fill-rule="evenodd" sketch:type="MSPage">
        <g id="list" sketch:type="MSLayerGroup" fill="#56aadf">
            <path d="M0,0 L200,0 L200,200 L0,200 L0,0 Z M47.4099099,53.4855769 C47.4099099,51.7427885 45.678491,50 43.3699324,50 L35.2899775,50 C32.9814189,50 31.25,51.7427885 31.25,53.4855769 L31.25,61.6185897 C31.25,63.9423077 32.9814189,65.6850962 35.2899775,65.6850962 L43.3699324,65.6850962 C45.678491,65.6850962 47.4099099,63.9423077 47.4099099,61.6185897 L47.4099099,53.4855769 L47.4099099,53.4855769 Z M159.375,53.4855769 C159.375,51.7427885 157.643581,50 155.335023,50 L61.8384009,50 C60.106982,50 57.7984234,51.7427885 57.7984234,53.4855769 L57.7984234,61.6185897 C57.7984234,63.9423077 60.106982,65.6850962 61.8384009,65.6850962 L155.335023,65.6850962 C157.643581,65.6850962 159.375,63.9423077 159.375,61.6185897 L159.375,53.4855769 L159.375,53.4855769 Z M47.4099099,91.2459936 C47.4099099,88.9222756 45.678491,87.1794872 43.3699324,87.1794872 L35.2899775,87.1794872 C32.9814189,87.1794872 31.25,88.9222756 31.25,91.2459936 L31.25,99.3790064 C31.25,101.702724 32.9814189,103.445513 35.2899775,103.445513 L43.3699324,103.445513 C45.678491,103.445513 47.4099099,101.702724 47.4099099,99.3790064 L47.4099099,91.2459936 L47.4099099,91.2459936 Z M148.409347,91.2459936 C148.409347,88.9222756 146.677928,87.1794872 144.369369,87.1794872 L61.8384009,87.1794872 C60.106982,87.1794872 57.7984234,88.9222756 57.7984234,91.2459936 L57.7984234,99.3790064 C57.7984234,101.702724 60.106982,103.445513 61.8384009,103.445513 L144.369369,103.445513 C146.677928,103.445513 148.409347,101.702724 148.409347,99.3790064 L148.409347,91.2459936 L148.409347,91.2459936 Z M47.4099099,129.00641 C47.4099099,126.682692 45.678491,124.939904 43.3699324,124.939904 L35.2899775,124.939904 C32.9814189,124.939904 31.25,126.682692 31.25,129.00641 L31.25,137.139423 C31.25,138.882212 32.9814189,140.625 35.2899775,140.625 L43.3699324,140.625 C45.678491,140.625 47.4099099,138.882212 47.4099099,137.139423 L47.4099099,129.00641 L47.4099099,129.00641 Z M159.375,129.00641 C159.375,126.682692 157.643581,124.939904 155.335023,124.939904 L61.8384009,124.939904 C60.106982,124.939904 57.7984234,126.682692 57.7984234,129.00641 L57.7984234,137.139423 C57.7984234,138.882212 60.106982,140.625 61.8384009,140.625 L155.335023,140.625 C157.643581,140.625 159.375,138.882212 159.375,137.139423 L159.375,129.00641 L159.375,129.00641 Z" id="Shape" sketch:type="MSShapeGroup"></path>
        </g>
    </g>
</svg>